<?xml version="1.0" encoding="UTF-8" standalone="no"?>
<!DOCTYPE svg PUBLIC "-//W3C//DTD SVG 1.1//EN"
 "http://www.w3.org/Graphics/SVG/1.1/DTD/svg11.dtd">
<!-- Generated by graphviz version 2.43.0 (0)
 -->
<!-- Title: PassInfo Pages: 1 -->
<svg width="1414pt" height="265pt"
 viewBox="0.00 0.00 1414.00 265.00" xmlns="http://www.w3.org/2000/svg" xmlns:xlink="http://www.w3.org/1999/xlink">
<g id="graph0" class="graph" transform="scale(1 1) rotate(0) translate(4 261)">
<title>PassInfo</title>
<polygon fill="white" stroke="transparent" points="-4,4 -4,-261 1410,-261 1410,4 -4,4"/>
<g id="clust1" class="cluster">
<title>cluster_pass_0</title>
<polygon fill="lightgrey" stroke="lightgrey" points="8,-8 8,-249 330,-249 330,-8 8,-8"/>
<text text-anchor="middle" x="169" y="-233.8" font-family="Helvetica,Arial,sans-serif" font-size="14.00">Pass 0</text>
</g>
<g id="clust2" class="cluster">
<title>cluster_pass_1</title>
<polygon fill="lightgrey" stroke="lightgrey" points="338,-8 338,-249 940,-249 940,-8 338,-8"/>
<text text-anchor="middle" x="639" y="-233.8" font-family="Helvetica,Arial,sans-serif" font-size="14.00">Pass 1</text>
</g>
<g id="clust3" class="cluster">
<title>cluster_pass_2</title>
<polygon fill="lightgrey" stroke="lightgrey" points="948,-127 948,-249 1148,-249 1148,-127 948,-127"/>
<text text-anchor="middle" x="1048" y="-233.8" font-family="Helvetica,Arial,sans-serif" font-size="14.00">Pass 2</text>
</g>
<g id="clust4" class="cluster">
<title>cluster_pass_3</title>
<polygon fill="lightgrey" stroke="lightgrey" points="1156,-8 1156,-249 1398,-249 1398,-8 1156,-8"/>
<text text-anchor="middle" x="1277" y="-233.8" font-family="Helvetica,Arial,sans-serif" font-size="14.00">Pass 3</text>
</g>
<!-- q0 -->
<g id="node1" class="node">
<title>q0</title>
<polygon fill="none" stroke="black" points="274,-218 64,-218 64,-135 274,-135 274,-218"/>
<text text-anchor="middle" x="169" y="-202.8" font-family="Helvetica,Arial,sans-serif" font-size="14.00">id: 0</text>
<text text-anchor="middle" x="169" y="-187.8" font-family="Helvetica,Arial,sans-serif" font-size="14.00">parentId: null</text>
<text text-anchor="middle" x="169" y="-172.8" font-family="Helvetica,Arial,sans-serif" font-size="14.00">passType: &quot;SelectPass&quot;</text>
<text text-anchor="middle" x="169" y="-157.8" font-family="Helvetica,Arial,sans-serif" font-size="14.00">pass: 0</text>
<text text-anchor="middle" x="169" y="-142.8" font-family="Helvetica,Arial,sans-serif" font-size="14.00">name: &quot;Local&#45;AllData&#45;QUERY0&quot;</text>
</g>
<!-- q1 -->
<g id="node2" class="node">
<title>q1</title>
<polygon fill="none" stroke="black" points="321.5,-99 16.5,-99 16.5,-16 321.5,-16 321.5,-99"/>
<text text-anchor="middle" x="169" y="-83.8" font-family="Helvetica,Arial,sans-serif" font-size="14.00">id: 1</text>
<text text-anchor="middle" x="169" y="-68.8" font-family="Helvetica,Arial,sans-serif" font-size="14.00">parentId: 0</text>
<text text-anchor="middle" x="169" y="-53.8" font-family="Helvetica,Arial,sans-serif" font-size="14.00">passType: &quot;SelectPass&quot;</text>
<text text-anchor="middle" x="169" y="-38.8" font-family="Helvetica,Arial,sans-serif" font-size="14.00">pass: 0</text>
<text text-anchor="middle" x="169" y="-23.8" font-family="Helvetica,Arial,sans-serif" font-size="14.00">name: &quot;Local&#45;Recommendation&#45;master&#45;DATA6&quot;</text>
</g>
<!-- q0&#45;&gt;q1 -->
<g id="edge1" class="edge">
<title>q0&#45;&gt;q1</title>
<path fill="none" stroke="black" d="M169,-134.91C169,-126.65 169,-117.86 169,-109.3"/>
<polygon fill="black" stroke="black" points="172.5,-109.02 169,-99.02 165.5,-109.02 172.5,-109.02"/>
</g>
<!-- q2 -->
<g id="node3" class="node">
<title>q2</title>
<polygon fill="none" stroke="black" points="751,-218 541,-218 541,-135 751,-135 751,-218"/>
<text text-anchor="middle" x="646" y="-202.8" font-family="Helvetica,Arial,sans-serif" font-size="14.00">id: 2</text>
<text text-anchor="middle" x="646" y="-187.8" font-family="Helvetica,Arial,sans-serif" font-size="14.00">parentId: null</text>
<text text-anchor="middle" x="646" y="-172.8" font-family="Helvetica,Arial,sans-serif" font-size="14.00">passType: &quot;SubSelectPass&quot;</text>
<text text-anchor="middle" x="646" y="-157.8" font-family="Helvetica,Arial,sans-serif" font-size="14.00">pass: 1</text>
<text text-anchor="middle" x="646" y="-142.8" font-family="Helvetica,Arial,sans-serif" font-size="14.00">name: &quot;Local&#45;AllData&#45;QUERY0&quot;</text>
</g>
<!-- q3 -->
<g id="node4" class="node">
<title>q3</title>
<polygon fill="none" stroke="black" points="643.5,-99 346.5,-99 346.5,-16 643.5,-16 643.5,-99"/>
<text text-anchor="middle" x="495" y="-83.8" font-family="Helvetica,Arial,sans-serif" font-size="14.00">id: 3</text>
<text text-anchor="middle" x="495" y="-68.8" font-family="Helvetica,Arial,sans-serif" font-size="14.00">parentId: 2</text>
<text text-anchor="middle" x="495" y="-53.8" font-family="Helvetica,Arial,sans-serif" font-size="14.00">passType: &quot;SubSelectPass&quot;</text>
<text text-anchor="middle" x="495" y="-38.8" font-family="Helvetica,Arial,sans-serif" font-size="14.00">pass: 1</text>
<text text-anchor="middle" x="495" y="-23.8" font-family="Helvetica,Arial,sans-serif" font-size="14.00">name: &quot;Local&#45;CompetitorPrice&#45;master&#45;DATA2&quot;</text>
</g>
<!-- q2&#45;&gt;q3 -->
<g id="edge2" class="edge">
<title>q2&#45;&gt;q3</title>
<path fill="none" stroke="black" d="M593.61,-134.91C581.31,-125.38 568.11,-115.15 555.49,-105.37"/>
<polygon fill="black" stroke="black" points="557.34,-102.38 547.3,-99.02 553.06,-107.91 557.34,-102.38"/>
</g>
<!-- q4 -->
<g id="node5" class="node">
<title>q4</title>
<polygon fill="none" stroke="black" points="932,-99 662,-99 662,-16 932,-16 932,-99"/>
<text text-anchor="middle" x="797" y="-83.8" font-family="Helvetica,Arial,sans-serif" font-size="14.00">id: 4</text>
<text text-anchor="middle" x="797" y="-68.8" font-family="Helvetica,Arial,sans-serif" font-size="14.00">parentId: 2</text>
<text text-anchor="middle" x="797" y="-53.8" font-family="Helvetica,Arial,sans-serif" font-size="14.00">passType: &quot;SubSelectPass&quot;</text>
<text text-anchor="middle" x="797" y="-38.8" font-family="Helvetica,Arial,sans-serif" font-size="14.00">pass: 1</text>
<text text-anchor="middle" x="797" y="-23.8" font-family="Helvetica,Arial,sans-serif" font-size="14.00">name: &quot;Local&#45;SellingPrice&#45;master&#45;DATA7&quot;</text>
</g>
<!-- q2&#45;&gt;q4 -->
<g id="edge3" class="edge">
<title>q2&#45;&gt;q4</title>
<path fill="none" stroke="black" d="M698.39,-134.91C710.69,-125.38 723.89,-115.15 736.51,-105.37"/>
<polygon fill="black" stroke="black" points="738.94,-107.91 744.7,-99.02 734.66,-102.38 738.94,-107.91"/>
</g>
<!-- q5 -->
<g id="node6" class="node">
<title>q5</title>
<polygon fill="none" stroke="black" points="1140,-218 956,-218 956,-135 1140,-135 1140,-218"/>
<text text-anchor="middle" x="1048" y="-202.8" font-family="Helvetica,Arial,sans-serif" font-size="14.00">id: 5</text>
<text text-anchor="middle" x="1048" y="-187.8" font-family="Helvetica,Arial,sans-serif" font-size="14.00">parentId: null</text>
<text text-anchor="middle" x="1048" y="-172.8" font-family="Helvetica,Arial,sans-serif" font-size="14.00">passType: &quot;SubSelectPass&quot;</text>
<text text-anchor="middle" x="1048" y="-157.8" font-family="Helvetica,Arial,sans-serif" font-size="14.00">pass: 2</text>
<text text-anchor="middle" x="1048" y="-142.8" font-family="Helvetica,Arial,sans-serif" font-size="14.00">name: undefined</text>
</g>
<!-- q6 -->
<g id="node7" class="node">
<title>q6</title>
<polygon fill="none" stroke="black" points="1382,-218 1172,-218 1172,-135 1382,-135 1382,-218"/>
<text text-anchor="middle" x="1277" y="-202.8" font-family="Helvetica,Arial,sans-serif" font-size="14.00">id: 6</text>
<text text-anchor="middle" x="1277" y="-187.8" font-family="Helvetica,Arial,sans-serif" font-size="14.00">parentId: null</text>
<text text-anchor="middle" x="1277" y="-172.8" font-family="Helvetica,Arial,sans-serif" font-size="14.00">passType: &quot;SubSelectPass&quot;</text>
<text text-anchor="middle" x="1277" y="-157.8" font-family="Helvetica,Arial,sans-serif" font-size="14.00">pass: 3</text>
<text text-anchor="middle" x="1277" y="-142.8" font-family="Helvetica,Arial,sans-serif" font-size="14.00">name: &quot;Local&#45;AllData&#45;QUERY0&quot;</text>
</g>
<!-- q7 -->
<g id="node8" class="node">
<title>q7</title>
<polygon fill="none" stroke="black" points="1390,-99 1164,-99 1164,-16 1390,-16 1390,-99"/>
<text text-anchor="middle" x="1277" y="-83.8" font-family="Helvetica,Arial,sans-serif" font-size="14.00">id: 7</text>
<text text-anchor="middle" x="1277" y="-68.8" font-family="Helvetica,Arial,sans-serif" font-size="14.00">parentId: 6</text>
<text text-anchor="middle" x="1277" y="-53.8" font-family="Helvetica,Arial,sans-serif" font-size="14.00">passType: &quot;SubSelectPass&quot;</text>
<text text-anchor="middle" x="1277" y="-38.8" font-family="Helvetica,Arial,sans-serif" font-size="14.00">pass: 3</text>
<text text-anchor="middle" x="1277" y="-23.8" font-family="Helvetica,Arial,sans-serif" font-size="14.00">name: &quot;Local&#45;Sale&#45;master&#45;DATA1&quot;</text>
</g>
<!-- q6&#45;&gt;q7 -->
<g id="edge4" class="edge">
<title>q6&#45;&gt;q7</title>
<path fill="none" stroke="black" d="M1277,-134.91C1277,-126.65 1277,-117.86 1277,-109.3"/>
<polygon fill="black" stroke="black" points="1280.5,-109.02 1277,-99.02 1273.5,-109.02 1280.5,-109.02"/>
</g>
</g>
</svg>
